<svg width="28" height="28" viewBox="0 0 28 28" fill="none" xmlns="http://www.w3.org/2000/svg">
<path d="M14 28C21.732 28 28 21.732 28 14C28 6.26801 21.732 0 14 0C6.26801 0 0 6.26801 0 14C0 21.732 6.26801 28 14 28Z" fill="#27E0C9"/>
<path d="M27.999 13.9999C27.999 12.1842 27.6532 10.4492 27.0241 8.8571L25.6079 7.45667L6.07852 9.00055L4.61328 13.3824L7.879 16.6472L10.9611 24.3517L14.5958 27.9864C22.0508 27.6736 27.999 21.5319 27.999 13.9999Z" fill="#17BFAB"/>
<path d="M11.4103 7.54397C11.4103 7.54397 8.78751 5.41586 7.93952 5.51928C7.09154 5.62269 6.07812 8.58025 6.07812 8.58025C6.07812 8.58025 7.57 11.2631 8.10944 12.4858L11.4103 7.54397Z" fill="#B56F40"/>
<path d="M8.6357 5.69399C8.6357 5.69399 7.9369 5.13771 6.74794 5.47371C5.30829 5.88059 3.80668 6.53328 3.05232 6.90877C1.92439 7.47024 1.92439 8.53583 2.67673 10.1173C3.20091 11.2191 4.54775 13.9419 5.12875 13.5724C5.40493 13.3968 7.0356 8.81315 7.37187 7.91644C7.64985 7.1752 8.5313 6.00462 8.6357 5.69399Z" fill="#CC8656"/>
<path d="M16.5879 7.54397C16.5879 7.54397 19.2107 5.41586 20.0587 5.51928C20.9067 5.62269 21.9201 8.58025 21.9201 8.58025C21.9201 8.58025 20.4282 11.2631 19.8888 12.4858L16.5879 7.54397Z" fill="#A35D2E"/>
<path d="M19.3633 5.69399C19.3633 5.69399 20.0621 5.13771 21.251 5.47371C22.6907 5.88059 24.1923 6.53328 24.9466 6.90877C26.0746 7.47024 26.0746 8.53583 25.3222 10.1173C24.7981 11.2191 23.4512 13.9419 22.8702 13.5724C22.594 13.3968 20.9634 8.81315 20.6271 7.91644C20.3491 7.1752 19.4676 6.00462 19.3633 5.69399Z" fill="#B56F40"/>
<path d="M20.3112 17.722C20.2392 17.8715 20.1604 18.0275 20.0744 18.1909C18.146 21.8582 18.8427 25.2473 14.0746 25.2473C9.30642 25.2473 10.0031 21.8582 8.07474 18.1909C7.98877 18.0275 7.90997 17.8715 7.83789 17.722C7.83789 17.722 8.89084 15.3698 9.45418 12.2109C9.94183 9.47277 12.778 6.69973 12.778 6.69973C13.2065 6.61803 13.642 6.57849 14.0746 6.57849C14.5071 6.57849 14.9428 6.61803 15.3712 6.69973C15.3712 6.69973 18.1294 9.47277 18.617 12.2109C19.1802 15.3698 20.3112 17.722 20.3112 17.722Z" fill="#FCF0E5"/>
<path d="M20.312 17.7219C20.2398 17.8717 20.1611 18.0276 20.0752 18.1911C18.1464 21.8584 18.8431 25.2474 14.0749 25.2474C14.0498 25.2474 14.0246 25.2474 14 25.2469V6.57928C14.0252 6.57874 14.0498 6.57874 14.0749 6.57874C14.5075 6.57874 14.9434 6.61811 15.3716 6.69959C15.3716 6.69959 18.13 9.4728 18.6178 12.211C19.1811 15.3697 20.312 17.7219 20.312 17.7219Z" fill="#EADDD3"/>
<path d="M14.0001 19.0004C12.6114 19.0004 11.3907 19.0856 11.7487 20.7001C11.9801 21.7437 13.453 22.4892 14.0001 22.4892C14.5472 22.4892 16.02 21.7437 16.2515 20.7001C16.6095 19.0856 15.3888 19.0004 14.0001 19.0004Z" fill="#70695E"/>
<path d="M16.2515 20.7002C16.0202 21.7436 14.5469 22.489 14 22.489V19.0005C15.3885 19.0005 16.6097 19.0853 16.2515 20.7002Z" fill="#5B554A"/>
<path d="M12.0361 16.3443C10.9651 17.0226 8.94827 17.5184 7.83812 17.7219C6.28718 14.5176 7.85458 14.3766 8.41792 11.2177C8.90556 8.47955 10.7902 7.09481 12.8535 6.69958C13.0079 9.13012 13.8621 15.1892 12.0361 16.3443Z" fill="#CC8656"/>
<path d="M20.3111 17.7218C19.201 17.5184 17.2176 17.0437 16.1466 16.3655C14.3207 15.2103 15.1414 9.13006 15.2958 6.69958C17.3591 7.09476 19.2437 8.47955 19.7313 11.2176C20.2947 14.3766 21.8621 14.5175 20.3111 17.7218Z" fill="#B56F40"/>
<path d="M10.8658 14.2611C11.2589 13.977 11.3474 13.428 11.0633 13.0348C10.7792 12.6416 10.2301 12.5532 9.83693 12.8373C9.44374 13.1214 9.35531 13.6704 9.63942 14.0636C9.92352 14.4568 10.4726 14.5452 10.8658 14.2611Z" fill="#5B554A"/>
<path d="M18.1822 14.258C18.5754 13.9739 18.6638 13.4248 18.3797 13.0316C18.0956 12.6384 17.5465 12.55 17.1533 12.8341C16.7601 13.1182 16.6717 13.6673 16.9558 14.0604C17.2399 14.4536 17.789 14.5421 18.1822 14.258Z" fill="#3A352E"/>
</svg>
